<?xml version="1.0" encoding="UTF-8"?>
<!DOCTYPE svg PUBLIC "-//W3C//DTD SVG 1.1//EN" "http://www.w3.org/Graphics/SVG/1.1/DTD/svg11.dtd">
<!-- Creator: CorelDRAW 2018 (64-Bit) -->
<svg xmlns="http://www.w3.org/2000/svg" xml:space="preserve" width="100mm" height="36.5337mm" version="1.1" style="shape-rendering:geometricPrecision; text-rendering:geometricPrecision; image-rendering:optimizeQuality; fill-rule:evenodd; clip-rule:evenodd"
viewBox="0 0 10000 3653.37"
 xmlns:xlink="http://www.w3.org/1999/xlink">
 <defs>
  <style type="text/css">
   <![CDATA[
    .fil1 {fill:#5A5857}
    .fil0 {fill:#498680}
   ]]>
  </style>
 </defs>
 <g id="Ebene_x0020_1">
  <metadata id="CorelCorpID_0Corel-Layer"/>
  <path class="fil0" d="M535.65 1291.91l-7.77 -7.83c-115.09,-152.01 -47.23,-534.72 -2.99,-709.06l10.15 -40.04 39.98 -10.15c174.03,-44.18 556.95,-112.22 709.51,3.38l7.48 7.47 0.03 -12.05c27.68,-199.24 368.1,-424.65 530.53,-521.14l4.18 -2.49 4.19 2.49c148.9,88.53 522.95,337.72 530.72,525.08 0,299.31 0,598.63 0,897.95l0 8.19 -370.67 0 -2.42 -2.39c-53.68,-53.71 -107.94,-106.84 -161.75,-160.45 -53.71,53.68 -108.1,106.68 -161.78,160.42l-2.42 2.38 -229.74 0 -0.13 229.82 -2.38 2.42c-53.36,53.36 -106.07,107.36 -159.4,160.74 53.33,53.42 106.04,107.46 159.4,160.81l2.38 2.42 0.1 229.82 230.09 -0.07 2.42 2.39c231.15,231.2 462.73,461.96 693.91,693.13l2.39 2.42 -0.13 211.17c-27.74,200.24 -367.45,425.23 -530.59,522.15l-4.19 2.48 -4.18 -2.48c-162.75,-96.73 -502.85,-321.72 -530.62,-522.57l0 -10.44 -6.13 6.15 -1.7 1.49c-152.02,115.08 -534.78,47.42 -709.13,2.99l-39.99 -10.18 -10.18 -39.95c-44.37,-173.99 -112.22,-556.88 3.39,-709.51l7.41 -7.41 -10.99 -0.03c-188.85,-26.13 -411.76,-344.62 -503.55,-499.27l-21.08 -35.51 21.04 -35.47c91.58,-154.36 314.45,-473.11 504.04,-499.27l10.57 0zm756.3 -555.88l-97.57 -97.73c-100.11,-69.24 -424.48,-11.56 -541.7,14.31 -25.88,117.18 -83.49,441.57 -14.79,541.06l98.24 98.21 555.78 -0.04 0.04 -555.81zm141.74 2241.21l-0.07 136.93c21.82,119.7 292.15,307.83 393.17,372.88 101.14,-64.63 371.25,-253.18 393.03,-372.1l-0.03 -138.9 -392.97 -392.95c-131.21,131.23 -261.93,262.94 -393.13,394.14zm-0.16 -202.59c96.89,-98.05 194.13,-195.74 290.99,-293.81l-119.32 -119.28 -172.19 0 0.52 413.09zm-756.11 -554.98l392.91 -392.98 -393.07 -393.05 -138.03 -0.1c-119.71,21.82 -307.81,292.07 -372.9,393.11 64.28,101.33 253.16,371.27 372.12,393.05l138.97 -0.03zm493.28 -493.32l121.18 -121.17 0 -171.51 -413.95 -0.03 292.77 292.71zm-434.67 635.21l-97.72 97.46c-69.18,100.14 -11.38,424.4 14.33,541.68 117.45,25.32 441.66,83.48 541.1,14.82l98.21 -98.27 -0.07 -555.69 -555.85 0zm697.59 -1483.8l0.2 414.05 171.41 0 121.25 -121.21 -292.86 -292.84zm393.17 192.54l393.06 -393.04 0.16 -136.65c-21.97,-121.17 -286.86,-305.85 -393.26,-374.29 -104.94,67.53 -371.18,252.7 -392.93,370.72l-0.04 140.35 393.01 392.91zm393.06 -192.48l-292.73 292.81 121.25 121.18 171.42 0 0.06 -413.99zm-927.97 1341.91l0 -171.54 -121.22 -121.21 -292.73 292.69 413.95 0.06z"/>
  <g id="_737317847152">
   <path class="fil1" d="M2293.19 1734.14l-300.87 0c0,-52.43 0,-104.92 0,-157.35l574.87 0 -316.53 626.27 307.79 0c0,52.46 0,104.89 0,157.38l-528.28 0 -63.45 0 326.47 -626.3zm703.44 311l191.47 0 -96.86 -212.09 -94.61 212.09zm36.18 -468.35c38.8,0 77.68,0 116.45,0l359.51 783.65c-57.55,0 -115.09,0 -172.6,0l-76.15 -156.63 -336.06 0 -75.32 156.63c-57.07,0 -114.24,0 -171.34,0l355.51 -783.65zm595.21 0c44.99,0 89.9,0 134.82,0l243.29 385.28 244.31 -385.28c44.54,0 89.08,0 133.59,0l0 783.65c-52.26,0 -104.55,0 -156.77,0l0 -416.5 -221.17 317.66 -221.27 -317.66 0 416.5c-52.26,0 -104.51,0 -156.8,0l0 -783.65zm1193.53 467.63l190.42 0 -96.83 -211.37 -93.59 211.37zm35.12 -467.63c38.84,0 77.65,0 116.53,0l359.5 783.65c-57.58,0 -115.16,0 -172.7,0l-76.08 -157.34 -335.13 0 -76.22 157.34c-57.1,0 -114.27,0 -171.37,0l355.47 -783.65zm600.98 0c33.04,0 66.15,0 99.12,0l403.74 495.86 0 -495.86c52.66,0 105.33,0 157.99,0l0 783.65c-32.63,0 -65.26,0 -97.89,0l-404.93 -469.88 0 469.88c-52.66,0 -105.36,0 -158.03,0l0 -783.65z"/>
   <path class="fil0" d="M6937.99 1878.41l238.34 0c73.11,0 67.58,-52.15 67.58,-83.52 1.12,-23.62 -17.89,-60.75 -67.58,-60.75l-238.34 0 0 144.27zm0 324.65l267.9 0c23.03,0 43.68,-5.08 59.59,-22.52 31.33,-34.34 26.76,-92.33 0,-121.95 -15.63,-17.24 -36.9,-22.8 -59.59,-22.8l-267.9 0 0 167.27zm-157.99 -626.27l389.3 0c188.44,0 291.85,163.01 214.78,328.65 1.68,0.82 -17.81,30.48 -19.86,33.18 4.98,4.33 9.73,8.77 14.27,13.34 89.15,90.07 96.9,248.07 -0.65,341.04 -23.65,22.59 -51.74,39.66 -83.96,50.99 -31.27,10.96 -65.98,16.45 -104,16.45l-409.88 0c0,-247.35 0,-536.33 0,-783.65zm1021.03 468.76l190.21 0 -96.35 -212.5 -93.86 212.5zm25.16 -446.26l10.23 -22.5 24.54 0 67.55 0 24.44 0 10.34 22.33 349.13 761.32c-57.55,0 -115.13,0 -172.64,0l-77.13 -157.31 -334.28 0 -76.05 157.31c-57.1,0 -114.24,0 -171.34,0l345.21 -761.15zm589.95 -22.5c33.08,0 66.08,0 99.15,0l403.67 495.86 0 -495.86c52.67,0 105.36,0 158.03,0l0 783.65c-32.63,0 -65.29,0 -97.92,0l-404.93 -469.88 0 469.88 -158 0 0 -783.65zm843.55 -1.29c52.67,0 105.33,0 158,0l0 313.22 34.78 0 289.19 -313.22c72.15,0 144.31,0 216.42,0l-351.58 372.3 393.5 412.64 -209.02 0 -312.98 -313.59 -60.31 -0.24 0 313.83c-52.67,0 -105.33,0 -158,0l0 -784.94z"/>
  </g>
 </g>
</svg>
